<?xml version="1.0" encoding="utf-8"?>
<!-- Generator: Adobe Illustrator 16.0.4, SVG Export Plug-In . SVG Version: 6.00 Build 0)  -->
<!DOCTYPE svg PUBLIC "-//W3C//DTD SVG 1.1//EN" "http://www.w3.org/Graphics/SVG/1.1/DTD/svg11.dtd">
<svg version="1.1" id="Layer_1" xmlns="http://www.w3.org/2000/svg" xmlns:xlink="http://www.w3.org/1999/xlink" x="0px" y="0px"
	 width="148px" height="43px" viewBox="0 0 148 43" enable-background="new 0 0 148 43" xml:space="preserve">
<g>
	<path fill="#333333" d="M61,13.81h3.29v15.734h9.85v2.995H61V13.81z M78.76,24.596V13.81h3.293v10.65
		c0,3.479,1.793,5.353,4.736,5.353c2.912,0,4.71-1.768,4.71-5.217V13.81h3.29v10.624c0,5.594-3.16,8.401-8.057,8.401
		c-4.873,0-7.976-2.81-7.976-8.239H78.76z M101.672,13.81h3.508l5.694,8.858l5.696-8.857h3.508v18.73h-3.29V19.11l-5.914,8.83
		h-0.108l-5.859-8.776V32.54h-3.238l-0.002-18.73H101.672z M133.496,13.677h3.05l8.242,18.864h-3.479l-1.898-4.52h-8.855
		l-1.927,4.52h-3.372l8.24-18.86V13.677z M138.206,25.104l-3.24-7.493l-3.21,7.497h6.45V25.104z"/>
	<g>
		<path fill="#62461E" d="M42.525,15.916c-1.314-7.73-8.027-13.623-16.133-13.623c-6.295,0-11.752,3.554-14.496,8.761
			C5.043,11.681-0.327,17.438-0.327,24.455c0,7.436,6.028,13.464,13.463,13.464c0.223,0,0.441-0.021,0.661-0.031
			c0.001,0.01,0.001,0.02,0.002,0.031h26.823c0.003-0.035,0.002-0.071,0.006-0.105c0.482,0.064,0.972,0.105,1.472,0.105
			c6.081,0,11.012-4.931,11.012-11.013C53.111,20.968,48.408,16.143,42.525,15.916z"/>
		<path fill="#62461E" d="M42.1,36.98c-0.422,0-0.863-0.032-1.346-0.098l-0.97-0.131l-0.021,0.229h-25.1l-0.003-0.044l-0.908,0.014
			l-0.217,0.013c-0.131,0.008-0.263,0.018-0.397,0.018c-6.906,0-12.525-5.62-12.525-12.525c0-6.514,4.888-11.874,11.37-12.467
			l0.507-0.046l0.237-0.451c2.685-5.095,7.922-8.26,13.666-8.26c7.547,0,13.942,5.401,15.208,12.841l0.128,0.751l0.761,0.029
			c5.43,0.21,9.684,4.625,9.684,10.053C52.173,32.461,47.654,36.98,42.1,36.98z"/>
		<g>
			<path fill="#A89332" d="M33.305,33.516c-2.103,0.98-4.439,1.544-6.913,1.544c-1.486,0-2.917-0.215-4.285-0.585
				c-2.229,1.997-5.122,3.256-8.31,3.413c0.001,0.01,0.001,0.02,0.002,0.031h26.823c0.003-0.035,0.002-0.071,0.006-0.105
				C37.64,37.412,35.036,35.814,33.305,33.516z"/>
			<path fill="#26A9E0" d="M15.191,30.613c-3.188-2.983-5.182-7.224-5.182-11.937c0-2.753,0.687-5.345,1.887-7.622
				c-6.854,0.626-12.223,6.384-12.223,13.4c0,7.436,6.028,13.464,13.463,13.464c0.223,0,0.441-0.021,0.661-0.031
				c-0.035-0.399-0.06-0.802-0.06-1.21C13.737,34.493,14.268,32.438,15.191,30.613z"/>
			<path fill="#5D9849" d="M15.191,30.613c-0.923,1.825-1.454,3.88-1.454,6.064c0,0.408,0.025,0.811,0.06,1.21
				c3.188-0.157,6.082-1.416,8.31-3.413C19.482,33.763,17.118,32.418,15.191,30.613z"/>
			<path fill="#8BC53F" d="M26.538,23.238c0.225-0.011,0.446-0.033,0.673-0.033c1.504,0,2.947,0.256,4.298,0.712
				c1.304-4.627,5.546-8.022,10.59-8.022c0.144,0,0.283,0.016,0.426,0.021c-1.314-7.73-8.027-13.623-16.133-13.623
				c-6.295,0-11.752,3.554-14.496,8.762c0.409-0.038,0.821-0.063,1.24-0.063C20.162,10.991,25.923,16.373,26.538,23.238z"/>
			<path fill="#57843C" d="M31.509,23.917c-1.352-0.456-2.794-0.712-4.298-0.712c-0.227,0-0.448,0.022-0.673,0.033
				c0.037,0.401,0.062,0.807,0.062,1.217c0,3.984-1.741,7.555-4.493,10.02c1.368,0.37,2.799,0.585,4.285,0.585
				c2.473,0,4.81-0.563,6.913-1.544c-1.386-1.843-2.218-4.126-2.218-6.609C31.087,25.869,31.241,24.869,31.509,23.917z"/>
			<path fill="#0A7599" d="M15.191,30.613c2.125-4.201,6.378-7.129,11.347-7.375c-0.615-6.865-6.376-12.247-13.401-12.247
				c-0.419,0-0.831,0.025-1.24,0.063c-1.2,2.277-1.887,4.869-1.887,7.622C10.009,23.39,12.003,27.63,15.191,30.613z"/>
			<path fill="#016A37" d="M26.6,24.455c0-0.41-0.025-0.815-0.062-1.217c-4.969,0.246-9.223,3.174-11.347,7.375
				c1.927,1.805,4.291,3.149,6.917,3.861C24.859,32.01,26.6,28.439,26.6,24.455z"/>
			<path fill="#F3793B" d="M42.525,15.916c0.152,0.899,0.25,1.818,0.25,2.761c0,4.178-1.571,7.98-4.147,10.869
				c1.296,2.069,2.057,4.51,2.057,7.132c0,0.384-0.025,0.761-0.057,1.136c0.482,0.064,0.972,0.105,1.472,0.105
				c6.081,0,11.012-4.931,11.012-11.013C53.111,20.968,48.408,16.142,42.525,15.916z"/>
			<path fill="#A14B24" d="M38.628,29.546c-1.479,1.658-3.285,3.019-5.323,3.97c1.73,2.299,4.335,3.896,7.323,4.298
				c0.032-0.375,0.057-0.752,0.057-1.136C40.685,34.056,39.924,31.615,38.628,29.546z"/>
			<path fill="#946A38" d="M31.509,23.917c2.976,1.002,5.481,3.013,7.119,5.629c2.576-2.889,4.147-6.691,4.147-10.869
				c0-0.943-0.098-1.861-0.25-2.761c-0.143-0.005-0.282-0.021-0.426-0.021C37.055,15.895,32.813,19.29,31.509,23.917z"/>
			<path fill="#62461E" d="M31.509,23.917c-0.269,0.952-0.422,1.952-0.422,2.989c0,2.483,0.832,4.767,2.218,6.609
				c2.038-0.951,3.844-2.312,5.323-3.97C36.99,26.93,34.485,24.919,31.509,23.917z"/>
		</g>
	</g>
</g>
</svg>
